<?xml version="1.0" encoding="UTF-8"?>
<svg version="1.1" xmlns="http://www.w3.org/2000/svg" width="110" height="89">
<path d="M0 0 C36.3 0 72.6 0 110 0 C110 29.37 110 58.74 110 89 C73.7 89 37.4 89 0 89 C0 59.63 0 30.26 0 0 Z " fill="#FCFDFD" transform="translate(0,0)"/>
<path d="M0 0 C3.79303725 1.00193437 6.71536341 1.81024227 10 4 C10.61875 3.34 11.2375 2.68 11.875 2 C14 0 14 0 16 0 C18.01782732 2.90567134 19.35494404 5.51669784 20 9 C20.2475 7.88625 20.495 6.7725 20.75 5.625 C22 2 22 2 24.125 0.5625 C24.74375 0.376875 25.3625 0.19125 26 0 C26 2.64 26 5.28 26 8 C26.99 7.67 27.98 7.34 29 7 C29.73323796 4.98491642 29.73323796 4.98491642 30 3 C33 4 33 4 35 6 C38.59679066 5.67673447 38.59679066 5.67673447 42 5 C41.79375 6.216875 41.5875 7.43375 41.375 8.6875 C40.90036156 12.34806773 41.23418616 14.67611512 43 18 C41 20 39 22 37 24 C37.66 24.33 38.32 24.66 39 25 C39 25.66 39 26.32 39 27 C40.65 27.33 42.3 27.66 44 28 C43.67 28.66 43.34 29.32 43 30 C42.34 30 41.68 30 41 30 C41 30.99 41 31.98 41 33 C39.02 33 37.04 33 35 33 C34.67 34.32 34.34 35.64 34 37 C34.56589844 37.10957031 35.13179687 37.21914063 35.71484375 37.33203125 C36.81505859 37.56986328 36.81505859 37.56986328 37.9375 37.8125 C38.66839844 37.96332031 39.39929688 38.11414062 40.15234375 38.26953125 C40.76207031 38.51058594 41.37179688 38.75164063 42 39 C42.33 39.99 42.66 40.98 43 42 C41.26043342 43.73956658 38.8063378 43.37190386 36.4375 43.5625 C35.42558594 43.64628906 34.41367188 43.73007812 33.37109375 43.81640625 C32.58863281 43.87699219 31.80617187 43.93757813 31 44 C30.67 46.31 30.34 48.62 30 51 C28.66666667 50.33333333 27.33333333 49.66666667 26 49 C25.278125 48.690625 24.55625 48.38125 23.8125 48.0625 C22 47 22 47 21 44 C20.52949219 44.3609375 20.05898437 44.721875 19.57421875 45.09375 C18.95160156 45.5578125 18.32898438 46.021875 17.6875 46.5 C17.07261719 46.9640625 16.45773438 47.428125 15.82421875 47.90625 C14 49 14 49 11 49 C11.474375 50.216875 11.94875 51.43375 12.4375 52.6875 C14.7202135 58.82908632 14.7202135 58.82908632 15 62 C12.45847921 64.54152079 10.80239017 64.26060808 7.33203125 64.2734375 C6.23955078 64.26183594 6.23955078 64.26183594 5.125 64.25 C4.04412109 64.26160156 4.04412109 64.26160156 2.94140625 64.2734375 C-0.85499069 64.25945445 -3.78280815 64.12233599 -7 62 C-7 62.66 -7 63.32 -7 64 C-10 64 -13 64 -16 64 C-16.495 64.99 -16.495 64.99 -17 66 C-18.98 65.34 -20.96 64.68 -23 64 C-23.29296875 57.9453125 -23.29296875 57.9453125 -23 56 C-22.01 55.34 -21.02 54.68 -20 54 C-19.34 53.34 -18.68 52.68 -18 52 C-18.495 50.515 -18.495 50.515 -19 49 C-19.66 49 -20.32 49 -21 49 C-21 49.99 -21 50.98 -21 52 C-21.66 52 -22.32 52 -23 52 C-23 49.36 -23 46.72 -23 44 C-21.86111328 44.01740234 -21.86111328 44.01740234 -20.69921875 44.03515625 C-19.70535156 44.04417969 -18.71148437 44.05320313 -17.6875 44.0625 C-16.70136719 44.07410156 -15.71523438 44.08570313 -14.69921875 44.09765625 C-11.90036151 44.12329862 -11.90036151 44.12329862 -9 43 C-8.67 42.34 -8.34 41.68 -8 41 C-10.64 40.67 -13.28 40.34 -16 40 C-15.34 37.69 -14.68 35.38 -14 33 C-11 34 -11 34 -9.8125 36.0625 C-9.544375 36.701875 -9.27625 37.34125 -9 38 C-8.67 36.35 -8.34 34.7 -8 33 C-7.34 33 -6.68 33 -6 33 C-5.67 33.66 -5.34 34.32 -5 35 C-4.67 34.34 -4.34 33.68 -4 33 C-1.67843403 32.59270772 0.6568787 32.25561323 3 32 C3 33.65 3 35.3 3 37 C3.66 37.33 4.32 37.66 5 38 C4.814375 38.5775 4.62875 39.155 4.4375 39.75 C3.95261433 42.24369772 4.30093578 43.59211213 5 46 C5 46.99 5 47.98 5 49 C11.62873097 46.91668455 15.77003786 41.99850112 19 36 C19.5892703 33.00454262 19.86455122 30.04759756 20 27 C19.59007812 27.6496875 19.18015625 28.299375 18.7578125 28.96875 C18.21898437 29.8040625 17.68015625 30.639375 17.125 31.5 C16.59132812 32.3353125 16.05765625 33.170625 15.5078125 34.03125 C15.01023438 34.6809375 14.51265625 35.330625 14 36 C13.34 36 12.68 36 12 36 C11.67 32.7 11.34 29.4 11 26 C10.34 26 9.68 26 9 26 C9.66 29.63 10.32 33.26 11 37 C7.16391142 33.16391142 5.88448055 31.12547086 5.875 25.75 C5.91625 24.5125 5.9575 23.275 6 22 C5.01 22 4.02 22 3 22 C2.34 22.99 1.68 23.98 1 25 C0.34 25 -0.32 25 -1 25 C-1 24.34 -1 23.68 -1 23 C-1.7425 22.9175 -2.485 22.835 -3.25 22.75 C-6.54302595 21.85190201 -7.85976788 20.61583926 -10 18 C-10 17.34 -10 16.68 -10 16 C-10.66 16 -11.32 16 -12 16 C-12 15.01 -12 14.02 -12 13 C-10.35 13 -8.7 13 -7 13 C-7 11.02 -7 9.04 -7 7 C-5.02 7 -3.04 7 -1 7 C-0.67 4.69 -0.34 2.38 0 0 Z " fill="#E2EEF3" transform="translate(59,9)"/>
<path d="M0 0 C0 1.65 0 3.3 0 5 C0.66 5.33 1.32 5.66 2 6 C1.814375 6.5775 1.62875 7.155 1.4375 7.75 C0.83983573 9.94835004 0.83983573 9.94835004 1.5 11.875 C2.17990599 14.76460047 1.58857238 17.12253502 1 20 C3.31 19.34 5.62 18.68 8 18 C12.06217105 25.02598684 12.06217105 25.02598684 11.8125 28.9375 C11 31 11 31 10 32 C7.38329079 32.12713954 4.80469287 32.18521024 2.1875 32.1875 C1.46240234 32.19974609 0.73730469 32.21199219 -0.00976562 32.22460938 C-3.82993278 32.23509474 -6.76435611 32.14860342 -10 30 C-10 30.66 -10 31.32 -10 32 C-13 32 -16 32 -19 32 C-19.33 32.66 -19.66 33.32 -20 34 C-21.98 33.34 -23.96 32.68 -26 32 C-26.29296875 25.9453125 -26.29296875 25.9453125 -26 24 C-25.01 23.34 -24.02 22.68 -23 22 C-22.34 21.34 -21.68 20.68 -21 20 C-21.33 19.01 -21.66 18.02 -22 17 C-22.66 17 -23.32 17 -24 17 C-24 17.99 -24 18.98 -24 20 C-24.66 20 -25.32 20 -26 20 C-26 17.36 -26 14.72 -26 12 C-24.86111328 12.01740234 -24.86111328 12.01740234 -23.69921875 12.03515625 C-22.70535156 12.04417969 -21.71148437 12.05320312 -20.6875 12.0625 C-19.70136719 12.07410156 -18.71523438 12.08570313 -17.69921875 12.09765625 C-14.90036151 12.12329862 -14.90036151 12.12329862 -12 11 C-11.67 10.34 -11.34 9.68 -11 9 C-13.64 8.67 -16.28 8.34 -19 8 C-18.34 5.69 -17.68 3.38 -17 1 C-14 2 -14 2 -12.8125 4.0625 C-12.544375 4.701875 -12.27625 5.34125 -12 6 C-11.67 4.35 -11.34 2.7 -11 1 C-10.34 1 -9.68 1 -9 1 C-8.67 1.66 -8.34 2.32 -8 3 C-7.67 2.34 -7.34 1.68 -7 1 C-4.61370553 0.38812962 -2.46459429 0 0 0 Z " fill="#EEF8FB" transform="translate(62,41)"/>
<path d="M0 0 C0.79664062 0.00257812 1.59328125 0.00515625 2.4140625 0.0078125 C3.20554687 0.00523438 3.99703125 0.00265625 4.8125 0 C7.0390625 0.1328125 7.0390625 0.1328125 10.0390625 1.1328125 C10.0390625 3.7728125 10.0390625 6.4128125 10.0390625 9.1328125 C9.0490625 8.8028125 8.0590625 8.4728125 7.0390625 8.1328125 C6.7090625 8.7928125 6.3790625 9.4528125 6.0390625 10.1328125 C3.97640428 10.5240063 1.94462983 10.63955769 -0.1484375 10.7890625 C-0.7465625 10.9025 -1.3446875 11.0159375 -1.9609375 11.1328125 C-2.2909375 11.7928125 -2.6209375 12.4528125 -2.9609375 13.1328125 C-1.6409375 13.1328125 -0.3209375 13.1328125 1.0390625 13.1328125 C1.6990625 15.7728125 2.3590625 18.4128125 3.0390625 21.1328125 C1.3890625 20.4728125 -0.2609375 19.8128125 -1.9609375 19.1328125 C-2.6209375 21.1128125 -3.2809375 23.0928125 -3.9609375 25.1328125 C-3.3009375 25.1328125 -2.6409375 25.1328125 -1.9609375 25.1328125 C-1.9609375 27.1128125 -1.9609375 29.0928125 -1.9609375 31.1328125 C-0.9709375 31.1328125 0.0190625 31.1328125 1.0390625 31.1328125 C1.0390625 29.4828125 1.0390625 27.8328125 1.0390625 26.1328125 C1.3690625 26.1328125 1.6990625 26.1328125 2.0390625 26.1328125 C2.0390625 28.1128125 2.0390625 30.0928125 2.0390625 32.1328125 C-2.24391281 33.18900253 -6.39079396 33.24983342 -10.7734375 33.1953125 C-11.46630859 33.19080078 -12.15917969 33.18628906 -12.87304688 33.18164062 C-14.56904818 33.16994406 -16.26500453 33.15201174 -17.9609375 33.1328125 C-17.9609375 30.8228125 -17.9609375 28.5128125 -17.9609375 26.1328125 C-14.3309375 25.8028125 -10.7009375 25.4728125 -6.9609375 25.1328125 C-7.92 24.359375 -7.92 24.359375 -8.8984375 23.5703125 C-11.51885431 20.47345627 -11.65483567 18.11213627 -11.9609375 14.1328125 C-11.9609375 14.7928125 -11.9609375 15.4528125 -11.9609375 16.1328125 C-13.2809375 16.1328125 -14.6009375 16.1328125 -15.9609375 16.1328125 C-16.2909375 17.1228125 -16.6209375 18.1128125 -16.9609375 19.1328125 C-15.3109375 18.8028125 -13.6609375 18.4728125 -11.9609375 18.1328125 C-12.2909375 19.1228125 -12.6209375 20.1128125 -12.9609375 21.1328125 C-14.6109375 20.8028125 -16.2609375 20.4728125 -17.9609375 20.1328125 C-17.9609375 18.1528125 -17.9609375 16.1728125 -17.9609375 14.1328125 C-18.6209375 13.8028125 -19.2809375 13.4728125 -19.9609375 13.1328125 C-18.9709375 12.8028125 -17.9809375 12.4728125 -16.9609375 12.1328125 C-16.6309375 11.4728125 -16.3009375 10.8128125 -15.9609375 10.1328125 C-16.9509375 10.1328125 -17.9409375 10.1328125 -18.9609375 10.1328125 C-20.03730877 6.25787594 -19.90660701 4.60828323 -17.9609375 1.1328125 C-16.88972656 1.14441406 -15.81851562 1.15601563 -14.71484375 1.16796875 C-13.31771007 1.17734549 -11.92057451 1.18644581 -10.5234375 1.1953125 C-9.81638672 1.20369141 -9.10933594 1.21207031 -8.38085938 1.22070312 C-6.57400191 1.22934838 -4.76706147 1.18501261 -2.9609375 1.1328125 C-1.9609375 0.1328125 -1.9609375 0.1328125 0 0 Z " fill="#DDEFF7" transform="translate(31.9609375,39.8671875)"/>
<path d="M0 0 C0.66 0.33 1.32 0.66 2 1 C2 1.66 2 2.32 2 3 C3.65 3 5.3 3 7 3 C7.5534764 5.07553648 8 6.84365964 8 9 C9.32 9.33 10.64 9.66 12 10 C12 10.66 12 11.32 12 12 C11.01 12.33 10.02 12.66 9 13 C9 14.32 9 15.64 9 17 C12.63 17 16.26 17 20 17 C20 17.66 20 18.32 20 19 C18.02 19 16.04 19 14 19 C13.67 20.32 13.34 21.64 13 23 C13.84884766 23.16435547 13.84884766 23.16435547 14.71484375 23.33203125 C15.81505859 23.56986328 15.81505859 23.56986328 16.9375 23.8125 C17.66839844 23.96332031 18.39929688 24.11414063 19.15234375 24.26953125 C19.76207031 24.51058594 20.37179688 24.75164063 21 25 C21.33 25.99 21.66 26.98 22 28 C20.26043342 29.73956658 17.8063378 29.37190386 15.4375 29.5625 C13.91962891 29.68818359 13.91962891 29.68818359 12.37109375 29.81640625 C11.19740234 29.90728516 11.19740234 29.90728516 10 30 C9.67 32.31 9.34 34.62 9 37 C7.66666667 36.33333333 6.33333333 35.66666667 5 35 C4.278125 34.690625 3.55625 34.38125 2.8125 34.0625 C1 33 1 33 0 30 C-3.465 32.475 -3.465 32.475 -7 35 C-7.66 34.67 -8.32 34.34 -9 34 C-7.515 33.505 -7.515 33.505 -6 33 C-4.88630928 31.15874869 -4.88630928 31.15874869 -4 29 C-3.64679688 28.38382813 -3.29359375 27.76765625 -2.9296875 27.1328125 C0.59010767 20.4321654 1.06422827 13.45918554 0 6 C-1.38907587 4.08978722 -1.38907587 4.08978722 -3 3 C-2.34 3 -1.68 3 -1 3 C-0.67 2.01 -0.34 1.02 0 0 Z " fill="#F2F9FB" transform="translate(80,23)"/>
<path d="M0 0 C7.79181443 -0.14640152 15.43143757 -0.01941464 23 2 C22.34 3.98 21.68 5.96 21 8 C20.34 8 19.68 8 19 8 C18.34 7.34 17.68 6.68 17 6 C16.34 5.67 15.68 5.34 15 5 C14.855625 5.5775 14.71125 6.155 14.5625 6.75 C14.21683355 8.1326658 13.84703375 9.50988751 13.4375 10.875 C12.89287189 13.15874166 12.89287189 13.15874166 13 16.1875 C13 17.115625 13 18.04375 13 19 C12 20 12 20 9.4375 20.0625 C8.633125 20.041875 7.82875 20.02125 7 20 C6.67 20.66 6.34 21.32 6 22 C4.02 21.34 2.04 20.68 0 20 C-0.29296875 13.9453125 -0.29296875 13.9453125 0 12 C0.99 11.34 1.98 10.68 3 10 C3.66 9.34 4.32 8.68 5 8 C4.67 7.01 4.34 6.02 4 5 C3.34 5 2.68 5 2 5 C2 5.99 2 6.98 2 8 C1.34 8 0.68 8 0 8 C0 5.36 0 2.72 0 0 Z " fill="#DBEDF5" transform="translate(36,53)"/>
<path d="M0 0 C0.5775 0.33 1.155 0.66 1.75 1 C4.19883862 2.27075898 4.19883862 2.27075898 8 2 C8.66 4.64 9.32 7.28 10 10 C8.35 9.34 6.7 8.68 5 8 C4.34 9.98 3.68 11.96 3 14 C3.66 14 4.32 14 5 14 C5 15.98 5 17.96 5 20 C5.99 20 6.98 20 8 20 C8 18.35 8 16.7 8 15 C8.33 15 8.66 15 9 15 C9 16.98 9 18.96 9 21 C4.71702469 22.05619003 0.57014354 22.11702092 -3.8125 22.0625 C-4.50537109 22.05798828 -5.19824219 22.05347656 -5.91210938 22.04882812 C-7.60811068 22.03713156 -9.30406703 22.01919924 -11 22 C-11 19.69 -11 17.38 -11 15 C-5.555 14.505 -5.555 14.505 0 14 C-0.66 13.505 -1.32 13.01 -2 12.5 C-4.8827217 8.89659788 -4.30200997 6.53014958 -4 2 C-2.68 2 -1.36 2 0 2 C0 1.34 0 0.68 0 0 Z " fill="#7D96A7" transform="translate(25,51)"/>
<path d="M0 0 C0.66 0.99 1.32 1.98 2 3 C0 5 -2 7 -4 9 C-3.34 9.33 -2.68 9.66 -2 10 C-2 10.66 -2 11.32 -2 12 C-0.35 12.33 1.3 12.66 3 13 C0.59686362 15.51236985 -0.78319518 16.95013095 -4.3828125 17.09765625 C-5.28773437 17.08605469 -6.19265625 17.07445313 -7.125 17.0625 C-8.03507812 17.05347656 -8.94515625 17.04445313 -9.8828125 17.03515625 C-10.93082031 17.01775391 -10.93082031 17.01775391 -12 17 C-12 15.35 -12 13.7 -12 12 C-10.68 11.67 -9.36 11.34 -8 11 C-8 10.34 -8 9.68 -8 9 C-9.65 8.67 -11.3 8.34 -13 8 C-11.03668341 2.50271356 -5.86583194 -1.14057843 0 0 Z " fill="#E4F4FA" transform="translate(100,24)"/>
<path d="M0 0 C5.78159553 -0.36134972 9.72006588 0.54209963 15 3 C15.33 3.99 15.66 4.98 16 6 C14.26043342 7.73956658 11.8063378 7.37190386 9.4375 7.5625 C7.91962891 7.68818359 7.91962891 7.68818359 6.37109375 7.81640625 C5.58863281 7.87699219 4.80617188 7.93757813 4 8 C3.67 10.31 3.34 12.62 3 15 C0.33333333 13.66666667 -2.33333333 12.33333333 -5 11 C-5.125 5.25 -5.125 5.25 -4 3 C-3.01 2.67 -2.02 2.34 -1 2 C-0.67 1.34 -0.34 0.68 0 0 Z " fill="#D5E8F4" transform="translate(86,45)"/>
<path d="M0 0 C3.96 0 7.92 0 12 0 C12.33 2.31 12.66 4.62 13 7 C10.50935112 7.68707555 8.62113708 8 6 8 C6.33 8.99 6.66 9.98 7 11 C6.34 11.66 5.68 12.32 5 13 C5.33 13.66 5.66 14.32 6 15 C4.68 15 3.36 15 2 15 C1.67 15.99 1.34 16.98 1 18 C2.65 17.67 4.3 17.34 6 17 C5.67 17.99 5.34 18.98 5 20 C3.35 19.67 1.7 19.34 0 19 C0 17.02 0 15.04 0 13 C-0.66 12.67 -1.32 12.34 -2 12 C-1.01 11.67 -0.02 11.34 1 11 C1.33 10.34 1.66 9.68 2 9 C1.01 9 0.02 9 -1 9 C-2.16552619 4.80410573 -2.08954032 4.17908064 0 0 Z " fill="#DDEEF7" transform="translate(14,41)"/>
<path d="M0 0 C2.0625 0.4375 2.0625 0.4375 4 1 C4.70971224 11.94533993 3.75132133 19.3958774 -3.4375 27.875 C-6.20362935 30.16886337 -8.86784069 32.22964908 -12 34 C-12.99 33.67 -13.98 33.34 -15 33 C-15 32.01 -15 31.02 -15 30 C-14.113125 29.9175 -13.22625 29.835 -12.3125 29.75 C-6.98826572 28.54451299 -4.28553766 25.67880346 -1.25 21.3125 C1.33429838 17.01073687 1.87380007 12.95621553 2 8 C1.59007813 8.6496875 1.18015625 9.299375 0.7578125 9.96875 C0.21898438 10.8040625 -0.31984375 11.639375 -0.875 12.5 C-1.40867187 13.3353125 -1.94234375 14.170625 -2.4921875 15.03125 C-2.98976563 15.6809375 -3.48734375 16.330625 -4 17 C-4.66 17 -5.32 17 -6 17 C-6.33 13.7 -6.66 10.4 -7 7 C-7.66 7 -8.32 7 -9 7 C-8.34 10.63 -7.68 14.26 -7 18 C-10.94714588 14.05285412 -10.94714588 14.05285412 -11.09765625 11.0546875 C-11.06510417 9.03645833 -11.03255208 7.01822917 -11 5 C-9.35 5 -7.7 5 -6 5 C-5.34 7.97 -4.68 10.94 -4 14 C-2.5491124 10.90477312 -1.81342999 8.12124318 -1.4375 4.75 C-1 1 -1 1 0 0 Z " fill="#3A5C7F" transform="translate(77,28)"/>
<path d="M0 0 C0.66 0 1.32 0 2 0 C3.60725635 3.21451269 3.05748185 6.43612536 3 10 C6.25932729 6.9734818 8.55890131 3.70373595 11 0 C11.33 0 11.66 0 12 0 C12.61820005 7.4184006 10.09537239 12.51730872 5.5625 18.3125 C3.11751358 20.87675405 1.27752155 22.65537578 -2 24 C-4.3125 23.1875 -4.3125 23.1875 -6 22 C-5.34 20.68 -4.68 19.36 -4 18 C-2.68 18.33 -1.36 18.66 0 19 C-0.99 19 -1.98 19 -3 19 C-3 19.66 -3 20.32 -3 21 C-2.21625 20.505 -1.4325 20.01 -0.625 19.5 C2 18 2 18 4 18 C3.45839872 15.29199359 2.63078934 13.21727341 1.4375 10.6875 C-0.06888176 6.82330331 -0.25124796 4.10371662 0 0 Z " fill="#DDF0F7" transform="translate(68,35)"/>
<path d="M0 0 C2.86724686 0.57344937 3.8614515 0.8614515 6 3 C9.59679066 2.67673447 9.59679066 2.67673447 13 2 C12.67 5.3 12.34 8.6 12 12 C9.75390625 12.71614583 7.5078125 13.43229167 5.26171875 14.1484375 C2.77275472 14.98831811 2.77275472 14.98831811 0 17 C-0.33 16.34 -0.66 15.68 -1 15 C-1.99 14.34 -2.98 13.68 -4 13 C-2.824375 12.2265625 -2.824375 12.2265625 -1.625 11.4375 C1.55594248 8.4837677 2.11493693 6.18393452 3 2 C2.01 2.33 1.02 2.66 0 3 C0 2.01 0 1.02 0 0 Z " fill="#DBEEF7" transform="translate(88,12)"/>
<path d="M0 0 C0.99 0 1.98 0 3 0 C3 2.31 3 4.62 3 7 C3.66 7 4.32 7 5 7 C5 6.01 5 5.02 5 4 C5.66 4 6.32 4 7 4 C8.625 6 8.625 6 10 8 C7.38058783 9.74627478 5.96175123 10.38722388 3 11 C3 13.64 3 16.28 3 19 C1 18.33333333 -1 17.66666667 -3 17 C-3 15.02 -3 13.04 -3 11 C-3.66 11 -4.32 11 -5 11 C-5 9.68 -5 8.36 -5 7 C-4.34 7 -3.68 7 -3 7 C-3 6.34 -3 5.68 -3 5 C-1.68 5.33 -0.36 5.66 1 6 C0.67 4.02 0.34 2.04 0 0 Z " fill="#DBEFF7" transform="translate(33,54)"/>
<path d="M0 0 C3 1 3 1 4.1875 3.0625 C4.455625 3.701875 4.72375 4.34125 5 5 C5.33 3.35 5.66 1.7 6 0 C6.66 0 7.32 0 8 0 C8.33 0.66 8.66 1.32 9 2 C9.33 1.34 9.66 0.68 10 0 C11.98 0 13.96 0 16 0 C16 2.64 16 5.28 16 8 C14.083412 8.02712153 12.1667127 8.04645097 10.25 8.0625 C8.64898437 8.07990234 8.64898437 8.07990234 7.015625 8.09765625 C4.45106138 8.01460691 2.44234865 7.69859973 0 7 C-0.66 7 -1.32 7 -2 7 C-1.34 4.69 -0.68 2.38 0 0 Z " fill="#9DBACB" transform="translate(45,42)"/>
<path d="M0 0 C0.86625 0.495 0.86625 0.495 1.75 1 C4.19883862 2.27075898 4.19883862 2.27075898 8 2 C8.66 4.64 9.32 7.28 10 10 C7.525 9.01 7.525 9.01 5 8 C5 8.66 5 9.32 5 10 C3.68 10 2.36 10 1 10 C1 9.01 1 8.02 1 7 C0.01 7 -0.98 7 -2 7 C-2 7.99 -2 8.98 -2 10 C-2.66 10 -3.32 10 -4 10 C-4 7.36 -4 4.72 -4 2 C-2.68 2 -1.36 2 0 2 C0 1.34 0 0.68 0 0 Z " fill="#D3E8F3" transform="translate(25,51)"/>
<path d="M0 0 C6.0546875 -0.1953125 6.0546875 -0.1953125 8 0 C8.66 0.66 9.32 1.32 10 2 C9.44444444 6.55555556 9.44444444 6.55555556 8 8 C5.32941149 8.14115161 2.67567762 8.04247107 0 8 C0 5.36 0 2.72 0 0 Z " fill="#7A96A9" transform="translate(64,65)"/>
<path d="M0 0 C1.37478516 0.01740234 1.37478516 0.01740234 2.77734375 0.03515625 C3.69644531 0.04417969 4.61554687 0.05320312 5.5625 0.0625 C6.27277344 0.07410156 6.98304687 0.08570312 7.71484375 0.09765625 C7.71484375 0.75765625 7.71484375 1.41765625 7.71484375 2.09765625 C7.05484375 2.09765625 6.39484375 2.09765625 5.71484375 2.09765625 C5.71484375 4.07765625 5.71484375 6.05765625 5.71484375 8.09765625 C2.08955807 8.29906101 -0.15017333 7.9554239 -3.28515625 6.09765625 C-3.61515625 6.75765625 -3.94515625 7.41765625 -4.28515625 8.09765625 C-3.27234375 0.13984375 -3.27234375 0.13984375 0 0 Z " fill="#9FB5C1" transform="translate(55.28515625,64.90234375)"/>
<path d="M0 0 C1.65 0.33 3.3 0.66 5 1 C5 3.31 5 5.62 5 8 C6.32 8.66 7.64 9.32 9 10 C9 10.99 9 11.98 9 13 C5.37 13 1.74 13 -2 13 C-2 15.31 -2 17.62 -2 20 C-2.33 20 -2.66 20 -3 20 C-3 17.36 -3 14.72 -3 12 C-1.5459375 11.814375 -1.5459375 11.814375 -0.0625 11.625 C0.948125 11.41875 1.95875 11.2125 3 11 C3.33 10.34 3.66 9.68 4 9 C2.68 8.67 1.36 8.34 0 8 C0.99 7.67 1.98 7.34 3 7 C3.33 6.34 3.66 5.68 4 5 C2.35 5.33 0.7 5.66 -1 6 C-0.67 4.68 -0.34 3.36 0 2 C0.99 2 1.98 2 3 2 C2.01 1.34 1.02 0.68 0 0 Z " fill="#E1EFF6" transform="translate(16,53)"/>
<path d="M0 0 C0.99 0 1.98 0 3 0 C3 0.99 3 1.98 3 3 C3.99 3.33 4.98 3.66 6 4 C5.67 4.99 5.34 5.98 5 7 C5.66 7 6.32 7 7 7 C7 8.98 7 10.96 7 13 C7.99 13 8.98 13 10 13 C10 11.35 10 9.7 10 8 C10.33 8 10.66 8 11 8 C11 9.98 11 11.96 11 14 C7.62182575 14.84454356 5.32534757 15.10844919 2 14 C2.226875 13.278125 2.45375 12.55625 2.6875 11.8125 C3.08784018 8.20943836 1.91557865 6.98830269 0 4 C0 2.68 0 1.36 0 0 Z " fill="#ABBECC" transform="translate(23,58)"/>
<path d="M0 0 C3.3 0 6.6 0 10 0 C10 2.64 10 5.28 10 8 C9.34 8 8.68 8 8 8 C8 5.69 8 3.38 8 1 C7.34 1 6.68 1 6 1 C5.84850702 4.62885324 5.84850702 4.62885324 7 8 C6.01 7.67 5.02 7.34 4 7 C4 6.34 4 5.68 4 5 C3.34 5 2.68 5 2 5 C2 5.99 2 6.98 2 8 C1.34 8 0.68 8 0 8 C0 5.36 0 2.72 0 0 Z " fill="#8BA8BF" transform="translate(36,53)"/>
<path d="M0 0 C3.97007156 0.27698174 5.72389212 0.76684223 8.8125 3.375 C11 6 11 6 12 9 C5.90140505 8.76083941 5.90140505 8.76083941 3.421875 6.66796875 C0 2.62661638 0 2.62661638 0 0 Z " fill="#2E5E91" transform="translate(48,23)"/>
<path d="M0 0 C-2.19225856 4.50630926 -4.33913203 6.19272467 -9 8 C-10.32 8 -11.64 8 -13 8 C-10.95058999 2.26165198 -5.98766709 -0.70443142 0 0 Z " fill="#2A598B" transform="translate(100,24)"/>
<path d="M0 0 C0.66 0 1.32 0 2 0 C3.58493084 3.16986168 3.2940042 6.54032261 3 10 C2 12.5 2 12.5 1 14 C0.34 14 -0.32 14 -1 14 C-2.58493084 10.83013832 -2.2940042 7.45967739 -2 4 C-1 1.5 -1 1.5 0 0 Z " fill="#355D86" transform="translate(73,9)"/>
<path d="M0 0 C0.66 0 1.32 0 2 0 C1.75988734 6.1228729 1.75988734 6.1228729 -0.3671875 8.578125 C-4.47737069 12 -4.47737069 12 -6 12 C-6.3125 9.3125 -6.3125 9.3125 -6 6 C-3.5625 3.1875 -3.5625 3.1875 -1 1 C-0.67 0.67 -0.34 0.34 0 0 Z " fill="#225586" transform="translate(89,14)"/>
<path d="M0 0 C3.16115776 1.36983503 3.9927092 1.9890638 6 5 C6.25760279 7.69452521 6.08900053 10.28548375 6 13 C3.2614331 11.9958588 2.18790425 11.33822766 0.75 8.75 C-0.07592799 5.72159739 -0.14534994 3.1250237 0 0 Z " fill="#29588A" transform="translate(60,10)"/>
<path d="M0 0 C2.86724686 0.57344937 3.8614515 0.8614515 6 3 C9.08347826 3.16681109 9.08347826 3.16681109 12 3 C11.375 5.4375 11.375 5.4375 10 8 C4.94736842 9.47368421 4.94736842 9.47368421 2 8 C2.33 6.02 2.66 4.04 3 2 C2.01 2.33 1.02 2.66 0 3 C0 2.01 0 1.02 0 0 Z " fill="#D8EEF6" transform="translate(88,12)"/>
<path d="M0 0 C0 2.64 0 5.28 0 8 C-0.99 8 -1.98 8 -3 8 C-3.33 7.34 -3.66 6.68 -4 6 C-4.33 6.66 -4.66 7.32 -5 8 C-5.66 8 -6.32 8 -7 8 C-7 5.36 -7 2.72 -7 0 C-4.3333581 -1.33332095 -2.83319697 -0.67102033 0 0 Z " fill="#829DAF" transform="translate(82,65)"/>
<path d="M0 0 C1.17755859 -0.00773437 1.17755859 -0.00773437 2.37890625 -0.015625 C4.4375 0.25 4.4375 0.25 6.4375 2.25 C2.64484952 4.92716504 0.08683486 5.85643498 -4.5625 5.25 C-6.4375 3.75 -6.4375 3.75 -7.5625 2.25 C-4.42838698 0.16059132 -3.58799528 -0.02364412 0 0 Z " fill="#245788" transform="translate(96.5625,35.75)"/>
<path d="M0 0 C5.2858549 -0.50341475 7.86554151 0.73089329 12 4 C12.33 4.66 12.66 5.32 13 6 C5.78287462 6.48929664 5.78287462 6.48929664 2 4.125 C0 2 0 2 0 0 Z " fill="#245485" transform="translate(87,45)"/>
<path d="M0 0 C8.57142857 -0.14285714 8.57142857 -0.14285714 12 1 C11.34 2.98 10.68 4.96 10 7 C9.34 7 8.68 7 8 7 C7.34 6.34 6.68 5.68 6 5 C5.34 4.67 4.68 4.34 4 4 C4 4.99 4 5.98 4 7 C3.34 7 2.68 7 2 7 C2 5.02 2 3.04 2 1 C1.34 0.67 0.68 0.34 0 0 Z " fill="#7B94A7" transform="translate(47,54)"/>
<path d="M0 0 C1.98 0.99 3.96 1.98 6 3 C3.19372222 7.74908547 0.74908547 10.19372222 -4 13 C-5.32 12.34 -6.64 11.68 -8 11 C-7.34 9.68 -6.68 8.36 -6 7 C-4.68 7.33 -3.36 7.66 -2 8 C-2.99 8 -3.98 8 -5 8 C-5 8.66 -5 9.32 -5 10 C-4.21625 9.505 -3.4325 9.01 -2.625 8.5 C0 7 0 7 2 7 C1.42415568 4.61435923 0.77772405 2.33317216 0 0 Z " fill="#CBDFE8" transform="translate(70,46)"/>
<path d="M0 0 C3.4375 0.5625 3.4375 0.5625 5.375 3.0625 C5.725625 3.8875 6.07625 4.7125 6.4375 5.5625 C5.4475 5.5625 4.4575 5.5625 3.4375 5.5625 C3.1075 5.8925 2.7775 6.2225 2.4375 6.5625 C0.73997813 6.31004803 -0.94721545 5.98604225 -2.625 5.625 C-3.54410156 5.43035156 -4.46320312 5.23570313 -5.41015625 5.03515625 C-6.12042969 4.87917969 -6.83070312 4.72320312 -7.5625 4.5625 C-5.13179521 1.45119787 -3.97372724 0.62743062 0 0 Z " fill="#E5ECF3" transform="translate(54.5625,49.4375)"/>
<path d="M0 0 C2.31 0 4.62 0 7 0 C6.979375 0.78375 6.95875 1.5675 6.9375 2.375 C6.81315937 4.98114961 6.81315937 4.98114961 8 7 C5.36 7 2.72 7 0 7 C0 4.69 0 2.38 0 0 Z " fill="#D9EFF4" transform="translate(14,66)"/>
<path d="M0 0 C1.98 0 3.96 0 6 0 C6.04254356 1.99954746 6.04080783 4.00041636 6 6 C5 7 5 7 2.4375 7.0625 C1.2309375 7.0315625 1.2309375 7.0315625 0 7 C0 4.69 0 2.38 0 0 Z " fill="#7895A9" transform="translate(43,66)"/>
<path d="M0 0 C0.66 0.33 1.32 0.66 2 1 C2.2734375 2.890625 2.2734375 2.890625 2.375 5.25 C2.74269521 9.5999037 3.8498972 11.8498972 7 15 C5.02 15.33 3.04 15.66 1 16 C0.71125 15.236875 0.4225 14.47375 0.125 13.6875 C-0.96269013 10.84970692 -0.96269013 10.84970692 -3 8 C-2.34 7.67 -1.68 7.34 -1 7 C-0.59270772 4.67843403 -0.25561323 2.3431213 0 0 Z " fill="#D6E9F4" transform="translate(59,9)"/>
<path d="M0 0 C2.4375 1.5625 2.4375 1.5625 5 4 C5.8125 7.75 5.8125 7.75 6 11 C2.83884224 9.63016497 2.0072908 9.0109362 0 6 C-0.125 2.8125 -0.125 2.8125 0 0 Z " fill="#2D5983" transform="translate(83,49)"/>
<path d="M0 0 C1.65 0 3.3 0 5 0 C6.4783226 2.95664519 6.06032783 5.74229737 6 9 C5.67 9 5.34 9 5 9 C4.67 6.69 4.34 4.38 4 2 C3.34 2 2.68 2 2 2 C2.66 5.63 3.32 9.26 4 13 C0.05285412 9.05285412 0.05285412 9.05285412 -0.09765625 6.0546875 C-0.06510417 4.03645833 -0.03255208 2.01822917 0 0 Z " fill="#3F6285" transform="translate(66,33)"/>
<path d="M0 0 C1.65 0 3.3 0 5 0 C6 3 6 3 6 7 C4.02 7 2.04 7 0 7 C0 4.69 0 2.38 0 0 Z " fill="#5D809B" transform="translate(21,42)"/>
<path d="M0 0 C5.99725275 2.10714286 5.99725275 2.10714286 8 5 C7.6875 7.1875 7.6875 7.1875 7 9 C3.46352496 7.32482761 2.2088437 6.50719183 0.6875 2.8125 C0.460625 1.884375 0.23375 0.95625 0 0 Z " fill="#2E5B88" transform="translate(52,16)"/>
<path d="M0 0 C0.33 0.66 0.66 1.32 1 2 C-2.08297927 5.25914951 -4.9161331 8.06553673 -9 10 C-9.99 9.67 -10.98 9.34 -12 9 C-12 8.01 -12 7.02 -12 6 C-11.13375 5.938125 -10.2675 5.87625 -9.375 5.8125 C-5.03952044 4.76877344 -3.23854277 3.00721829 0 0 Z " fill="#33577F" transform="translate(74,52)"/>
<path d="M0 0 C0.99 0 1.98 0 3 0 C3.33 0.99 3.66 1.98 4 3 C2.26043342 4.73956658 -0.1936622 4.37190386 -2.5625 4.5625 C-4.08037109 4.68818359 -4.08037109 4.68818359 -5.62890625 4.81640625 C-6.41136719 4.87699219 -7.19382812 4.93757813 -8 5 C-8.33 5.99 -8.66 6.98 -9 8 C-12 4.25 -12 4.25 -12 2 C-7.71 2 -3.42 2 1 2 C0.67 1.34 0.34 0.68 0 0 Z " fill="#CEE1EE" transform="translate(98,48)"/>
<path d="M0 0 C0.66 0 1.32 0 2 0 C2.33 0.66 2.66 1.32 3 2 C3.33 1.34 3.66 0.68 4 0 C4.99 0 5.98 0 7 0 C7 2.31 7 4.62 7 7 C6.34 6.34 5.68 5.68 5 5 C4.34 5.66 3.68 6.32 3 7 C2.01 7 1.02 7 0 7 C0 4.69 0 2.38 0 0 Z " fill="#3A6285" transform="translate(51,42)"/>
<path d="M0 0 C0.66 0 1.32 0 2 0 C2.2475 0.969375 2.495 1.93875 2.75 2.9375 C3.1625 3.948125 3.575 4.95875 4 6 C6.03243548 6.96877057 6.03243548 6.96877057 8 7 C7.67 7.99 7.34 8.98 7 10 C5.02 10 3.04 10 1 10 C1 9.01 1 8.02 1 7 C0.649375 6.154375 0.29875 5.30875 -0.0625 4.4375 C-0.371875 3.633125 -0.68125 2.82875 -1 2 C-0.67 1.34 -0.34 0.68 0 0 Z " fill="#ECF8FB" transform="translate(12,55)"/>
<path d="M0 0 C1.65 0 3.3 0 5 0 C4.814375 0.94875 4.62875 1.8975 4.4375 2.875 C3.71313368 5.89868793 3.71313368 5.89868793 5 8 C3.35 8 1.7 8 0 8 C0 5.36 0 2.72 0 0 Z " fill="#9BB6C5" transform="translate(64,65)"/>
<path d="M0 0 C0.66 0 1.32 0 2 0 C3.625 2 3.625 2 5 4 C2.33440687 5.77706209 -0.0280615 6.87548273 -3 8 C-3 6.68 -3 5.36 -3 4 C-2.01 3.67 -1.02 3.34 0 3 C0 2.01 0 1.02 0 0 Z " fill="#EDF9FB" transform="translate(38,58)"/>
<path d="M0 0 C2 0 4 0 6 0 C6 2.31 6 4.62 6 7 C5.34 7 4.68 7 4 7 C3.34 6.01 2.68 5.02 2 4 C1.34 4.99 0.68 5.98 0 7 C0 4.69 0 2.38 0 0 Z " fill="#4A6D8C" transform="translate(36,66)"/>
<path d="M0 0 C0.66 0 1.32 0 2 0 C2.33 0.66 2.66 1.32 3 2 C3.33 1.34 3.66 0.68 4 0 C4.66 0 5.32 0 6 0 C6 2.31 6 4.62 6 7 C5.01 6.67 4.02 6.34 3 6 C2.67 5.34 2.34 4.68 2 4 C1.34 4.99 0.68 5.98 0 7 C0 4.69 0 2.38 0 0 Z " fill="#456A8B" transform="translate(36,42)"/>
<path d="M0 0 C0.99 0.33 1.98 0.66 3 1 C4.1875 4.0625 4.1875 4.0625 5 7 C2.69 7 0.38 7 -2 7 C-1.34 4.69 -0.68 2.38 0 0 Z " fill="#537897" transform="translate(45,42)"/>
<path d="M0 0 C2.33333333 2.33333333 4.66666667 4.66666667 7 7 C4.83032311 7.95465783 3.43671207 8.14401212 1.17578125 7.3984375 C-0.5684743 6.64129615 -2.28627131 5.82390802 -4 5 C-4.33 5.66 -4.66 6.32 -5 7 C-5 6.01 -5 5.02 -5 4 C-3.35 4 -1.7 4 0 4 C0 2.68 0 1.36 0 0 Z " fill="#D5EBF4" transform="translate(52,18)"/>
<path d="M0 0 C2.31 0 4.62 0 7 0 C6.67 1.32 6.34 2.64 6 4 C3.36 4 0.72 4 -2 4 C-1.34 2.68 -0.68 1.36 0 0 Z " fill="#FAFCFD" transform="translate(30,50)"/>
<path d="M0 0 C0.99 0.33 1.98 0.66 3 1 C4.1875 4.0625 4.1875 4.0625 5 7 C2.69 7 0.38 7 -2 7 C-1.34 4.69 -0.68 2.38 0 0 Z " fill="#527594" transform="translate(30,42)"/>
<path d="M0 0 C1.65 0 3.3 0 5 0 C4.979375 0.78375 4.95875 1.5675 4.9375 2.375 C4.81315937 4.98114961 4.81315937 4.98114961 6 7 C5.01 6.67 4.02 6.34 3 6 C3 5.34 3 4.68 3 4 C2.34 4 1.68 4 1 4 C0.67 4.99 0.34 5.98 0 7 C0 4.69 0 2.38 0 0 Z " fill="#50728D" transform="translate(37,54)"/>
<path d="M0 0 C0.66 0 1.32 0 2 0 C2 0.66 2 1.32 2 2 C2.99 2 3.98 2 5 2 C5.33 1.34 5.66 0.68 6 0 C6 2.31 6 4.62 6 7 C5.67 6.01 5.34 5.02 5 4 C4.01 4 3.02 4 2 4 C2 4.99 2 5.98 2 7 C1.34 7 0.68 7 0 7 C0 4.69 0 2.38 0 0 Z " fill="#506F86" transform="translate(21,54)"/>
<path d="M0 0 C0.99 0 1.98 0 3 0 C4.0625 1.8125 4.0625 1.8125 5 4 C4.67 4.99 4.34 5.98 4 7 C2.68 6.34 1.36 5.68 0 5 C-0.33 5.66 -0.66 6.32 -1 7 C-0.67 4.69 -0.34 2.38 0 0 Z " fill="#526F8B" transform="translate(52,66)"/>
<path d="M0 0 C1.65 0.33 3.3 0.66 5 1 C5 2.65 5 4.3 5 6 C3.02 6 1.04 6 -1 6 C-0.67 4.68 -0.34 3.36 0 2 C0.99 2 1.98 2 3 2 C2.01 1.34 1.02 0.68 0 0 Z " fill="#D5EDF3" transform="translate(16,53)"/>
<path d="M0 0 C0.66 0.99 1.32 1.98 2 3 C1.09674384 4.32176485 0.17682097 5.63215066 -0.75 6.9375 C-1.26046875 7.66839844 -1.7709375 8.39929688 -2.296875 9.15234375 C-4.19177915 11.20805399 -5.27425729 11.62669176 -8 12 C-7.67 11.34 -7.34 10.68 -7 10 C-6.34 10 -5.68 10 -5 10 C-4.731875 9.46375 -4.46375 8.9275 -4.1875 8.375 C-2.79166667 5.58333333 -1.39583333 2.79166667 0 0 Z " fill="#D6E9F3" transform="translate(79,46)"/>
<path d="M0 0 C2.0625 0.4375 2.0625 0.4375 4 1 C4 2.32 4 3.64 4 5 C2.68 5 1.36 5 0 5 C-0.33 5.66 -0.66 6.32 -1 7 C-1.04254356 5.00045254 -1.04080783 2.99958364 -1 1 C-0.67 0.67 -0.34 0.34 0 0 Z " fill="#81A2BB" transform="translate(77,28)"/>
<path d="M0 0 C-0.33 2.31 -0.66 4.62 -1 7 C-2.9375 6.6875 -2.9375 6.6875 -5 6 C-5.33 5.01 -5.66 4.02 -6 3 C-2.25 0 -2.25 0 0 0 Z " fill="#306191" transform="translate(91,14)"/>
<path d="M0 0 C0.33 0 0.66 0 1 0 C1.25 5.625 1.25 5.625 -1 9 C-1.66 9 -2.32 9 -3 9 C-2.25 2.25 -2.25 2.25 0 0 Z " fill="#375F89" transform="translate(83,9)"/>
<path d="M0 0 C0.66 0 1.32 0 2 0 C2.66 2.31 3.32 4.62 4 7 C1.525 6.01 1.525 6.01 -1 5 C-1.33 5.66 -1.66 6.32 -2 7 C-1.125 1.125 -1.125 1.125 0 0 Z " fill="#486B8B" transform="translate(31,54)"/>
<path d="M0 0 C0.33 0 0.66 0 1 0 C1.7342166 6.75479274 -0.72408048 11.18524285 -4 17 C-4.66 16.34 -5.32 15.68 -6 15 C-5.38125 14.195625 -4.7625 13.39125 -4.125 12.5625 C-1.50185488 8.68359392 -0.76958672 4.55676349 0 0 Z " fill="#536C82" transform="translate(80,36)"/>
<path d="M0 0 C-0.33 1.32 -0.66 2.64 -1 4 C-2.65 4.33 -4.3 4.66 -6 5 C-6 3.35 -6 1.7 -6 0 C-3 -1 -3 -1 0 0 Z " fill="#F4FDFD" transform="translate(26,49)"/>
<path d="M0 0 C0.99 0 1.98 0 3 0 C2.3125 2.4375 2.3125 2.4375 1 5 C-1.625 5.8125 -1.625 5.8125 -4 6 C-2.84826645 3.53199953 -1.95216435 1.95216435 0 0 Z " fill="#32597B" transform="translate(97,15)"/>
<path d="M0 0 C0.33 0 0.66 0 1 0 C1.25706972 5.91260345 0.2982126 11.23918159 -1 17 C-1.33 17 -1.66 17 -2 17 C-3.65805877 11.67675868 -3.65805877 11.67675868 -4 9 C-2.6875 7.375 -2.6875 7.375 -1 6 C-0.2730774 2.89160979 -0.2730774 2.89160979 0 0 Z " fill="#C2DBE9" transform="translate(84,9)"/>
<path d="M0 0 C1.67542976 0.28604898 3.34385343 0.61781233 5 1 C4.360625 1.103125 3.72125 1.20625 3.0625 1.3125 C2.0415625 1.6528125 2.0415625 1.6528125 1 2 C0.67 2.99 0.34 3.98 0 5 C1.65 4.67 3.3 4.34 5 4 C4.67 4.99 4.34 5.98 4 7 C2.35 6.67 0.7 6.34 -1 6 C-1.042721 4.33388095 -1.04063832 2.66617115 -1 1 C-0.67 0.67 -0.34 0.34 0 0 Z " fill="#556F84" transform="translate(15,54)"/>
<path d="M0 0 C1.65 0 3.3 0 5 0 C5 1.32 5 2.64 5 4 C3.68 4 2.36 4 1 4 C0.67 4.99 0.34 5.98 0 7 C0 4.69 0 2.38 0 0 Z " fill="#527190" transform="translate(14,42)"/>
<path d="M0 0 C1.32 1.32 2.64 2.64 4 4 C3.01 4 2.02 4 1 4 C1 4.66 1 5.32 1 6 C-0.32 6.33 -1.64 6.66 -3 7 C-2.25 2.25 -2.25 2.25 0 0 Z " fill="#F0FAFD" transform="translate(91,19)"/>
<path d="M0 0 C1.65 0 3.3 0 5 0 C4.67 1.32 4.34 2.64 4 4 C3.34 4 2.68 4 2 4 C2 4.99 2 5.98 2 7 C1.34 7 0.68 7 0 7 C0 4.69 0 2.38 0 0 Z " fill="#597291" transform="translate(14,66)"/>
<path d="M0 0 C1.32 0.66 2.64 1.32 4 2 C3.01 3.32 2.02 4.64 1 6 C-0.32 5.67 -1.64 5.34 -3 5 C-2.67 4.34 -2.34 3.68 -2 3 C-1.34 3.33 -0.68 3.66 0 4 C0 2.68 0 1.36 0 0 Z " fill="#ECFBFE" transform="translate(89,56)"/>
<path d="M0 0 C1.66611905 -0.042721 3.33382885 -0.04063832 5 0 C6 1 6 1 6.0625 3.5625 C6.041875 4.366875 6.02125 5.17125 6 6 C5.01 6.495 5.01 6.495 4 7 C3.566875 5.824375 3.566875 5.824375 3.125 4.625 C2.15087746 1.90328368 2.15087746 1.90328368 0 0 Z " fill="#D8EFFA" transform="translate(45,41)"/>
<path d="M0 0 C0 0.33 0 0.66 0 1 C-0.56589844 1.10957031 -1.13179687 1.21914063 -1.71484375 1.33203125 C-2.81505859 1.56986328 -2.81505859 1.56986328 -3.9375 1.8125 C-4.66839844 1.96332031 -5.39929688 2.11414062 -6.15234375 2.26953125 C-7.06693359 2.63111328 -7.06693359 2.63111328 -8 3 C-8.33 3.99 -8.66 4.98 -9 6 C-9.33 6 -9.66 6 -10 6 C-10 4.35 -10 2.7 -10 1 C-6.42181037 -1.33958553 -4.07775191 -0.9267618 0 0 Z " fill="#CAE1ED" transform="translate(98,35)"/>
<path d="M0 0 C0.66 0 1.32 0 2 0 C2 2.31 2 4.62 2 7 C1.01 7 0.02 7 -1 7 C-1.04254356 5.00045254 -1.04080783 2.99958364 -1 1 C-0.67 0.67 -0.34 0.34 0 0 Z " fill="#125093" transform="translate(73,13)"/>
<path d="M0 0 C1.60031344 3.20062687 0.03173691 5.72271806 -1 9 C-1.99 9 -2.98 9 -4 9 C-4 8.34 -4 7.68 -4 7 C-3.34 7 -2.68 7 -2 7 C-2 5.02 -2 3.04 -2 1 C-1.34 0.67 -0.68 0.34 0 0 Z " fill="#E3F5FB" transform="translate(44,42)"/>
</svg>
